:FULLY-SPECIFIED
:FORCE-ALL-JOINTS-BE-3DOF
:DEGREES
2956
root -5.89556 13.2637 -28.9236 162.421 -67.1769 -159.427
lfemur -67.7835 43.5559 -6.57612
ltibia 77.7752 -0 0
lfoot -7.81622 -2.91709 0.00602339
ltoes -38.8396 0 0
rfemur -34.1266 -17.8665 22.7141
rtibia 90.6723 -0 0
rfoot -40.6205 -30.149 0.00318045
rtoes -13.7795 0 0
lowerback 16.2453 5.30653 1.38445
upperback -4.44757 7.63458 1.46755
thorax -14.158 3.4769 -1.27678
lowerneck -2.91337 9.46253 1.6646
upperneck 8.29445 12.3902 1.67666
head 3.17891 6.23607 0.726901
lclavicle 7.95139e-16 -2.50469e-14 0
lhumerus 5.79699 14.462 82.9187
lradius 90.742 -0 0
lwrist -18.2942 0 0
lhand -38.8692 28.7015 0.00539692
lfingers 7.12502 -0 0
lthumb -11.8774 58.3388 0.00574552
rclavicle 7.95139e-16 -2.50469e-14 0
rhumerus -57.2491 51.0824 -110.319
rradius 112.797 -0 0
rwrist -81.9524 0 0
rhand 7.10735 -25.4286 0.0174097
rfingers 7.12502 -0 0
rthumb 32.3754 -52.5304 0.0241767
2957
root -5.84181 13.3119 -28.9902 162.06 -67.6248 -159.004
lfemur -67.7239 43.1264 -6.65251
ltibia 77.2759 -0 0
lfoot -7.78381 -2.73365 0.0104039
ltoes -38.7163 0 0
rfemur -34.1504 -17.6682 22.851
rtibia 90.4445 -0 0
rfoot -40.4678 -30.1284 0.00549331
rtoes -13.743 0 0
lowerback 16.2385 5.28739 1.37882
upperback -4.41885 7.605 1.45756
thorax -14.1205 3.46419 -1.2752
lowerneck -2.88036 9.32809 1.57335
upperneck 8.17634 12.214 1.70138
head 3.13603 6.14834 0.747815
lclavicle 7.95139e-16 -2.50469e-14 0
lhumerus 5.91599 14.27 82.9143
lradius 90.6414 -0 0
lwrist -18.0785 0 0
lhand -38.7305 28.74 0.00932157
lfingers 7.12502 -0 0
lthumb -11.7435 58.3813 0.00992365
rclavicle 7.95139e-16 -2.50469e-14 0
rhumerus -56.0006 50.9908 -109.388
rradius 112.696 -0 0
rwrist -81.6982 0 0
rhand 6.84974 -25.4949 0.0300733
rfingers 7.12502 -0 0
rthumb 32.1285 -52.6264 0.0417624
2958
root -5.78805 13.36 -29.0568 161.586 -68.1839 -158.453
lfemur -67.6488 42.5889 -6.74822
ltibia 76.6511 -0 0
lfoot -7.74322 -2.50407 0.0157403
ltoes -38.562 0 0
rfemur -34.1794 -17.42 23.022
rtibia 90.1594 -0 0
rfoot -40.2768 -30.1026 0.00831069
rtoes -13.6972 0 0
lowerback 16.23 5.26343 1.37178
upperback -4.38289 7.56799 1.44503
thorax -14.0734 3.44828 -1.27322
lowerneck -2.83876 9.1599 1.45909
upperneck 8.02852 11.9937 1.73281
head 3.08232 6.03858 0.77408
lclavicle 7.95139e-16 -2.50469e-14 0
lhumerus 6.06481 14.0298 82.9081
lradius 90.5156 -0 0
lwrist -17.8086 0 0
lhand -38.5569 28.7882 0.0141023
lfingers 7.12502 -0 0
lthumb -11.5759 58.4345 0.0150131
rclavicle 7.95139e-16 -2.50469e-14 0
rhumerus -54.4453 50.8584 -108.231
rradius 112.568 -0 0
rwrist -81.38 0 0
rhand 6.52729 -25.5779 0.0455028
rfingers 7.12502 -0 0
rthumb 31.8193 -52.7467 0.063189
2959
root -5.7343 13.4082 -29.1234 160.988 -68.8462 -157.764
lfemur -67.5588 41.95 -6.86219
ltibia 75.9082 -0 0
lfoot -7.69494 -2.23112 0.0218726
ltoes -38.3785 0 0
rfemur -34.2128 -17.1247 23.2248
rtibia 89.8205 -0 0
rfoot -40.0497 -30.0719 0.0115481
rtoes -13.6429 0 0
lowerback 16.2199 5.23496 1.36342
upperback -4.34014 7.52399 1.43011
thorax -14.0175 3.42937 -1.27089
lowerneck -2.78888 8.96005 1.32316
upperneck 7.85277 11.7318 1.77091
head 3.01842 5.90811 0.805431
lclavicle 7.95139e-16 -2.50469e-14 0
lhumerus 6.24156 13.7441 82.8999
lradius 90.366 -0 0
lwrist -17.4878 0 0
lhand -38.3505 28.8455 0.0195956
lfingers 7.12502 -0 0
lthumb -11.3767 58.4977 0.0208612
rclavicle 7.95139e-16 -2.50469e-14 0
rhumerus -52.6085 50.6752 -106.868
rradius 112.417 -0 0
rwrist -81.0018 0 0
rhand 6.14393 -25.6768 0.0632374
rfingers 7.12502 -0 0
rthumb 31.4518 -52.8899 0.0878166
2960
root -5.68054 13.4564 -29.19 160.251 -69.6035 -156.921
lfemur -67.4543 41.2164 -6.99335
ltibia 75.055 -0 0
lfoot -7.63945 -1.91761 0.0286323
ltoes -38.1678 0 0
rfemur -34.2498 -16.7855 23.4572
rtibia 89.4312 -0 0
rfoot -39.7888 -30.0367 0.0151165
rtoes -13.5804 0 0
lowerback 16.2083 5.20225 1.35382
upperback -4.29103 7.47348 1.41294
thorax -13.9533 3.40764 -1.26824
lowerneck -2.73104 8.73066 1.1669
upperneck 7.6509 11.4311 1.81563
head 2.94495 5.7583 0.841613
lclavicle 7.95139e-16 -2.50469e-14 0
lhumerus 6.44437 13.4161 82.8894
lradius 90.1942 -0 0
lwrist -17.1192 0 0
lhand -38.1134 28.9114 0.0256504
lfingers 7.12502 -0 0
lthumb -11.1479 58.5703 0.027307
rclavicle 7.95139e-16 -2.50469e-14 0
rhumerus -50.5174 50.4311 -105.322
rradius 112.244 -0 0
rwrist -80.5674 0 0
rhand 5.70357 -25.7904 0.0827906
rfingers 7.12502 -0 0
rthumb 31.0295 -53.0545 0.11497
2961
root -5.62679 13.5045 -29.2565 159.352 -70.4472 -155.905
lfemur -67.3361 40.3946 -7.14069
ltibia 74.099 -0 0
lfoot -7.57723 -1.56633 0.0358454
ltoes -37.9317 0 0
rfemur -34.2895 -16.4052 23.7168
rtibia 88.995 -0 0
rfoot -39.4965 -29.9972 0.0189239
rtoes -13.5104 0 0
lowerback 16.1954 5.16559 1.34307
upperback -4.23599 7.4169 1.39364
thorax -13.8814 3.38329 -1.2653
lowerneck -2.66552 8.47382 0.991656
upperneck 7.42468 11.0945 1.86697
head 2.86255 5.59051 0.882371
lclavicle 7.95139e-16 -2.50469e-14 0
lhumerus 6.67136 13.0486 82.8762
lradius 90.0017 -0 0
lwrist -16.7063 0 0
lhand -37.8478 28.9852 0.0321107
lfingers 7.12502 -0 0
lthumb -10.8915 58.6518 0.0341843
rclavicle 7.95139e-16 -2.50469e-14 0
rhumerus -48.2013 50.1154 -103.617
rradius 112.049 -0 0
rwrist -80.0806 0 0
rhand 5.21012 -25.918 0.10366
rfingers 7.12502 -0 0
rthumb 30.5563 -53.2392 0.143951
2962
root -5.57304 13.5527 -29.3231 158.265 -71.3681 -154.689
lfemur -67.2045 39.4912 -7.30319
ltibia 73.0478 -0 0
lfoot -7.50877 -1.18008 0.0433359
ltoes -37.6721 0 0
rfemur -34.3309 -15.9869 24.0013
rtibia 88.5154 -0 0
rfoot -39.1751 -29.9537 0.0228775
rtoes -13.4335 0 0
lowerback 16.1811 5.12529 1.33126
upperback -4.17545 7.3547 1.37237
thorax -13.8023 3.35652 -1.26209
lowerneck -2.59261 8.19165 0.798761
upperneck 7.17588 10.7245 1.92491
head 2.77183 5.40608 0.927452
lclavicle 7.95139e-16 -2.50469e-14 0
lhumerus 6.92066 12.6446 82.86
lradius 89.79 -0 0
lwrist -16.2523 0 0
lhand -37.5557 29.0664 0.0388188
lfingers 7.12502 -0 0
lthumb -10.6095 58.7414 0.0413255
rclavicle 7.95139e-16 -2.50469e-14 0
rhumerus -45.6914 49.7182 -101.781
rradius 111.835 -0 0
rwrist -79.5454 0 0
rhand 4.6675 -26.0584 0.125339
rfingers 7.12502 -0 0
rthumb 30.0359 -53.4425 0.174055
2963
root -5.51928 13.6009 -29.3897 156.954 -72.3565 -153.239
lfemur -67.0602 38.513 -7.4799
ltibia 71.9091 -0 0
lfoot -7.43456 -0.761644 0.0509293
ltoes -37.3908 0 0
rfemur -34.3733 -15.5336 24.3085
rtibia 87.9959 -0 0
rfoot -38.8269 -29.9066 0.026885
rtoes -13.3501 0 0
lowerback 16.1657 5.08162 1.31848
upperback -4.10986 7.28736 1.34925
thorax -13.7166 3.32751 -1.25867
lowerneck -2.5126 7.88626 0.589542
upperneck 6.90627 10.324 1.98944
head 2.67342 5.20637 0.976604
lclavicle 7.95139e-16 -2.50469e-14 0
lhumerus 7.19041 12.207 82.8405
lradius 89.5607 -0 0
lwrist -15.7604 0 0
lhand -37.2393 29.1544 0.0456183
lfingers 7.12502 -0 0
lthumb -10.3041 58.8384 0.0485639
rclavicle 7.95139e-16 -2.50469e-14 0
rhumerus -43.0204 49.2305 -99.8424
rradius 111.604 -0 0
rwrist -78.9657 0 0
rhand 4.07963 -26.2107 0.14732
rfingers 7.12502 -0 0
rthumb 29.472 -53.6631 0.20458
